<svg xmlns="http://www.w3.org/2000/svg" viewBox="0 0 249.4 249.4"><defs><style>.cls-1{fill:#fff;}.cls-2{fill:#003169;stroke:#fff;stroke-miterlimit:10;}</style></defs><g id="Layer_2" data-name="Layer 2"><g id="Capa_1" data-name="Capa 1"><circle class="cls-1" cx="124.7" cy="124.7" r="124.7"/><polygon class="cls-2" points="194.68 179.98 104.22 175.52 76.69 46.3 167.15 50.7 194.68 179.98"/><path class="cls-2" d="M187.41,203.1l-97.95-4.46C86.88,184.6,98,181.3,102.84,180l91.89,4.46A22.53,22.53,0,0,0,187.41,203.1Z"/><path class="cls-2" d="M74.16,53.57l-1.43-6.83c-9.86,1-15,6.17-18.06,15.2l1.49,6.82C59.24,59.79,64.36,54.61,74.16,53.57Z"/><path class="cls-2" d="M97.56,163.4,75.31,58.85C66.4,60,61.88,63.75,57.48,74.43L80.27,177.88C83.3,169.46,88.31,164.56,97.56,163.4Z"/><path class="cls-2" d="M100.26,176l-1.55-7.27c-8.42,1.16-12.88,4.9-17.12,14.93l3.25,14.64C83.41,184.93,94,176.45,100.26,176Z"/></g></g></svg>