<?xml version="1.0" encoding="utf-8"?>
<!-- Generator: Adobe Illustrator 22.1.0, SVG Export Plug-In . SVG Version: 6.00 Build 0)  -->
<svg version="1.1" id="Capa_1" xmlns="http://www.w3.org/2000/svg" xmlns:xlink="http://www.w3.org/1999/xlink" x="0px" y="0px"
	 viewBox="0 0 326.3 201.1" style="enable-background:new 0 0 326.3 201.1;" xml:space="preserve">
<style type="text/css">
	.st0{clip-path:url(#SVGID_2_);}
	.st1{clip-path:url(#SVGID_4_);fill:#003169;}
	.st2{clip-path:url(#SVGID_4_);}
	.st3{fill:#FFFFFF;}
	.st4{clip-path:url(#SVGID_6_);}
	.st5{fill:#9EA1A2;}
	.st6{clip-path:url(#SVGID_10_);}
	.st7{clip-path:url(#SVGID_14_);}
	.st8{clip-path:url(#SVGID_20_);}
	.st9{clip-path:url(#SVGID_26_);}
	.st10{fill:#4682B4;}
	.st11{fill:#003169;}
	.st12{fill:#0ABBB5;}
	.st13{fill:none;}
	.st14{clip-path:url(#SVGID_32_);}
	.st15{clip-path:url(#SVGID_34_);fill:#0ABBB5;}
	.st16{clip-path:url(#SVGID_34_);}
	.st17{clip-path:url(#SVGID_36_);}
	.st18{opacity:0.15;clip-path:url(#SVGID_36_);}
	.st19{clip-path:url(#SVGID_38_);}
	.st20{clip-path:url(#SVGID_36_);fill:#101820;}
	.st21{clip-path:url(#SVGID_42_);fill:#101820;}
	.st22{clip-path:url(#SVGID_44_);}
	.st23{clip-path:url(#SVGID_48_);fill:#003169;}
	.st24{fill:#101820;}
	.st25{opacity:0.15;clip-path:url(#SVGID_50_);}
	.st26{clip-path:url(#SVGID_52_);}
	.st27{clip-path:url(#SVGID_50_);fill:#4682B4;}
	.st28{clip-path:url(#SVGID_56_);fill:#4682B4;}
	.st29{opacity:0.15;clip-path:url(#SVGID_58_);}
	.st30{clip-path:url(#SVGID_60_);}
	.st31{clip-path:url(#SVGID_58_);fill:#0ABBB5;}
	.st32{clip-path:url(#SVGID_64_);fill:#0ABBB5;}
	.st33{opacity:0.15;clip-path:url(#SVGID_66_);}
	.st34{clip-path:url(#SVGID_68_);}
	.st35{clip-path:url(#SVGID_66_);fill:#FFFFFF;}
	.st36{clip-path:url(#SVGID_66_);fill:none;stroke:#FFFFFF;stroke-width:2.485;stroke-miterlimit:10;}
	.st37{clip-path:url(#SVGID_72_);}
	.st38{clip-path:url(#SVGID_66_);fill:none;stroke:#FFFFFF;stroke-width:2.31;stroke-miterlimit:10;}
	.st39{clip-path:url(#SVGID_76_);}
	.st40{opacity:0.15;clip-path:url(#SVGID_80_);}
	.st41{clip-path:url(#SVGID_82_);}
	.st42{clip-path:url(#SVGID_80_);fill:#101820;}
	.st43{clip-path:url(#SVGID_86_);fill:#101820;}
	.st44{clip-path:url(#SVGID_88_);}
	.st45{opacity:0.15;clip-path:url(#SVGID_92_);}
	.st46{clip-path:url(#SVGID_94_);}
	.st47{clip-path:url(#SVGID_92_);fill:#FFFFFF;}
	.st48{clip-path:url(#SVGID_98_);fill:#FFFFFF;}
	.st49{opacity:0.15;clip-path:url(#SVGID_100_);}
	.st50{clip-path:url(#SVGID_102_);}
	.st51{clip-path:url(#SVGID_100_);fill:#9EA1A2;}
	.st52{clip-path:url(#SVGID_106_);fill:#9EA1A2;}
	.st53{opacity:0.15;clip-path:url(#SVGID_108_);}
	.st54{clip-path:url(#SVGID_110_);}
	.st55{clip-path:url(#SVGID_108_);fill:#636569;}
	.st56{clip-path:url(#SVGID_114_);fill:#636569;}
	.st57{opacity:0.15;clip-path:url(#SVGID_116_);}
	.st58{clip-path:url(#SVGID_118_);}
	.st59{clip-path:url(#SVGID_116_);fill:#FFFFFF;}
	.st60{clip-path:url(#SVGID_116_);fill:none;stroke:#FFFFFF;stroke-width:1.414;stroke-miterlimit:10;}
	.st61{clip-path:url(#SVGID_122_);}
	.st62{clip-path:url(#SVGID_116_);fill:none;stroke:#FFFFFF;stroke-width:1.52;stroke-miterlimit:10;}
	.st63{clip-path:url(#SVGID_126_);}
	.st64{clip-path:url(#SVGID_130_);}
	.st65{clip-path:url(#SVGID_134_);fill:#003169;}
	.st66{clip-path:url(#SVGID_134_);}
	.st67{clip-path:url(#SVGID_136_);}
	.st68{clip-path:url(#SVGID_134_);fill:none;stroke:#000000;stroke-width:1.571;stroke-miterlimit:10;}
	.st69{fill:#1D1D1B;}
	.st70{clip-path:url(#SVGID_138_);fill:#003169;}
	.st71{clip-path:url(#SVGID_138_);}
	.st72{clip-path:url(#SVGID_140_);}
	.st73{clip-path:url(#SVGID_142_);}
	.st74{clip-path:url(#SVGID_146_);fill:#003169;}
	.st75{clip-path:url(#SVGID_146_);fill:#0ABBB5;}
	.st76{clip-path:url(#SVGID_146_);fill:#4682B4;}
	.st77{clip-path:url(#SVGID_148_);}
	.st78{clip-path:url(#SVGID_152_);fill:#003169;}
	.st79{clip-path:url(#SVGID_152_);fill:#4682B4;}
	.st80{clip-path:url(#SVGID_152_);fill:#0ABBB5;}
</style>
<path class="st11" d="M96.5,172.2c0-0.8-0.3-1.4-0.8-1.9c-0.5-0.5-1.2-0.8-1.9-0.8c-0.9,0-1.5,0.3-1.9,0.8c-0.4,0.5-0.7,1.2-1,2
	c-0.6,1.7-1.6,3-2.8,3.9c-1.2,0.9-2.7,1.3-4.5,1.3c-1.6,0-3.1-0.4-4.3-1.2c-1.2-0.8-2.2-2-2.8-3.5c-0.7-1.6-1-3.6-1-6
	c0-3.6,0.8-6.3,2.3-8.3c1.5-1.9,3.5-2.9,6.1-2.9c1.6,0,3,0.4,4.1,1.1c1.1,0.8,2,1.9,2.9,3.4c0.5,0.9,0.9,1.6,1.3,1.9
	c0.4,0.4,1,0.6,1.8,0.6c0.7,0,1.3-0.3,1.8-0.8c0.5-0.5,0.8-1.2,0.8-1.9c0-1.3-0.5-2.7-1.6-4.1c-1-1.5-2.5-2.7-4.5-3.7
	c-1.9-1-4.2-1.5-6.6-1.5c-2,0-4,0.4-5.8,1.1c-1.8,0.7-3.4,1.8-4.7,3.2c-1.3,1.4-2.4,3.1-3.1,5c-0.7,2-1.1,4.2-1.1,6.6
	c0,1.5,0.1,3,0.4,4.3c0.3,1.4,0.7,2.6,1.3,3.8c0.6,1.2,1.3,2.3,2.1,3.2c0.9,1.1,1.9,1.9,3,2.6c1.1,0.6,2.3,1.1,3.6,1.4
	c1.3,0.3,2.8,0.5,4.4,0.5c2.1,0,4-0.3,5.6-1c1.6-0.7,2.9-1.6,4-2.7c1-1.1,1.8-2.2,2.3-3.3C96.3,174.2,96.5,173.1,96.5,172.2"/>
<path class="st11" d="M108.2,154.4c0-1.3-0.3-2.2-0.9-2.8c-0.6-0.6-1.3-0.9-2.3-0.9c-0.9,0-1.7,0.3-2.2,0.9
	c-0.6,0.6-0.8,1.6-0.8,2.8v23.6c0,1.3,0.3,2.3,0.9,2.9c0.6,0.6,1.6,0.9,2.9,0.9h15c1,0,1.8-0.2,2.3-0.7c0.5-0.5,0.8-1.1,0.8-1.8
	c0-0.7-0.3-1.4-0.8-1.8c-0.5-0.5-1.3-0.7-2.3-0.7h-12.6V154.4z"/>
<path class="st11" d="M153.4,176.3c-2.7-6.6-5.3-13.2-8-19.8c-0.4-1-0.7-1.8-0.9-2.4c-0.2-0.6-0.5-1.1-0.9-1.7
	c-0.4-0.5-0.8-0.9-1.4-1.3c-0.6-0.3-1.3-0.5-2.2-0.5c-0.9,0-1.6,0.2-2.1,0.5c-0.6,0.3-1,0.8-1.4,1.3c-0.4,0.5-0.7,1.2-1,2
	c-0.3,0.8-0.6,1.5-0.8,2.1c-2.6,6.6-5.2,13.3-7.9,19.9c-0.3,0.8-0.6,1.4-0.7,1.9c-0.1,0.4-0.2,0.9-0.2,1.3c0,0.7,0.3,1.4,0.9,1.9
	c0.6,0.6,1.3,0.9,2.1,0.9c0.9,0,1.6-0.3,2-0.8c0.4-0.5,0.9-1.6,1.5-3.1c0.5-1.3,1-2.6,1.5-3.9h12.5c0.5,1.3,1,2.6,1.5,3.9
	c0.2,0.5,0.4,1,0.7,1.6c0.3,0.6,0.5,1.1,0.8,1.4c0.2,0.3,0.5,0.5,0.9,0.7c0.4,0.2,0.8,0.3,1.3,0.3c0.8,0,1.6-0.3,2.1-0.9
	c0.6-0.6,0.9-1.2,0.9-2C154.3,178.9,154,177.8,153.4,176.3 M135.4,169.9l4.5-12.7l4.6,12.7H135.4z"/>
<path class="st11" d="M182.2,172.7c0-1.5-0.3-2.9-0.8-3.9c-0.6-1.1-1.3-2-2.3-2.6c-1-0.7-2.2-1.3-3.6-1.8c-1.4-0.5-3-0.9-4.7-1.3
	c-1.4-0.3-2.4-0.6-3-0.8c-0.6-0.2-1.2-0.4-1.8-0.8c-0.6-0.3-1-0.7-1.4-1.2s-0.5-1-0.5-1.6c0-1,0.5-1.8,1.5-2.5
	c1-0.7,2.3-1.1,3.9-1.1c1.7,0,3,0.3,3.8,1c0.8,0.6,1.5,1.6,2,2.7c0.4,0.8,0.8,1.4,1.2,1.7c0.4,0.4,0.9,0.5,1.6,0.5
	c0.8,0,1.4-0.3,2-0.9c0.5-0.6,0.8-1.3,0.8-2c0-0.8-0.2-1.6-0.6-2.5c-0.4-0.9-1.1-1.7-2-2.4c-0.9-0.8-2-1.4-3.4-1.9
	c-1.4-0.5-3-0.7-4.9-0.7c-2.4,0-4.4,0.4-6.2,1.1c-1.7,0.7-3.1,1.7-4,3c-0.9,1.3-1.4,2.8-1.4,4.5c0,1.8,0.4,3.3,1.3,4.4
	c0.9,1.2,2.1,2.1,3.5,2.8c1.5,0.7,3.3,1.3,5.5,1.8c1.6,0.4,3,0.7,3.9,1.1c1,0.3,1.8,0.8,2.4,1.5c0.6,0.6,0.9,1.5,0.9,2.5
	c0,1.3-0.6,2.4-1.7,3.2c-1.2,0.9-2.6,1.3-4.5,1.3c-1.3,0-2.4-0.2-3.2-0.6c-0.8-0.4-1.5-1-1.9-1.6c-0.5-0.7-0.9-1.5-1.3-2.4
	c-0.3-0.8-0.7-1.4-1.2-1.9c-0.5-0.4-1-0.6-1.7-0.6c-0.8,0-1.5,0.3-2,0.8c-0.5,0.5-0.8,1.2-0.8,1.9c0,1.3,0.4,2.6,1.3,4
	c0.9,1.4,2,2.5,3.4,3.3c2,1.1,4.5,1.7,7.5,1.7c2.5,0,4.7-0.4,6.6-1.3c1.8-0.8,3.2-2,4.2-3.5C181.7,176.2,182.2,174.5,182.2,172.7"/>
<path class="st11" d="M207.7,156c1,0,1.7-0.2,2.2-0.7c0.5-0.4,0.7-1,0.7-1.7c0-0.7-0.2-1.3-0.7-1.7c-0.5-0.4-1.2-0.7-2.2-0.7h-16.4
	c-0.9,0-1.6,0.1-2.2,0.4c-0.6,0.3-1,0.7-1.2,1.2s-0.4,1.3-0.4,2.2v23.1c0,1.3,0.3,2.3,0.9,2.9c0.6,0.6,1.6,0.9,2.9,0.9h16.9
	c1,0,1.7-0.2,2.2-0.7c0.5-0.5,0.7-1,0.7-1.8c0-0.8-0.2-1.4-0.7-1.8c-0.5-0.5-1.2-0.7-2.2-0.7h-14.5v-8.7h12.9c1,0,1.7-0.2,2.1-0.7
	c0.5-0.4,0.7-1,0.7-1.7c0-0.7-0.2-1.3-0.7-1.7c-0.5-0.4-1.2-0.6-2.1-0.6h-12.9V156H207.7z"/>
<path class="st11" d="M239.4,172.7c0-1.5-0.3-2.9-0.8-3.9c-0.6-1.1-1.3-2-2.3-2.6c-1-0.7-2.2-1.3-3.6-1.8c-1.4-0.5-3-0.9-4.7-1.3
	c-1.4-0.3-2.4-0.6-3-0.8c-0.6-0.2-1.2-0.4-1.8-0.8c-0.6-0.3-1-0.7-1.4-1.2c-0.3-0.4-0.5-1-0.5-1.6c0-1,0.5-1.8,1.5-2.5
	c1-0.7,2.3-1.1,3.9-1.1c1.7,0,3,0.3,3.8,1c0.8,0.6,1.5,1.6,2,2.7c0.4,0.8,0.8,1.4,1.2,1.7s0.9,0.5,1.6,0.5c0.8,0,1.4-0.3,2-0.9
	c0.5-0.6,0.8-1.3,0.8-2c0-0.8-0.2-1.6-0.6-2.5c-0.4-0.9-1.1-1.7-2-2.4c-0.9-0.8-2-1.4-3.4-1.9c-1.4-0.5-3-0.7-4.9-0.7
	c-2.4,0-4.4,0.4-6.2,1.1c-1.7,0.7-3.1,1.7-4,3c-0.9,1.3-1.4,2.8-1.4,4.5c0,1.8,0.4,3.3,1.3,4.4c0.9,1.2,2.1,2.1,3.5,2.8
	c1.5,0.7,3.3,1.3,5.5,1.8c1.6,0.4,3,0.7,3.9,1.1c1,0.3,1.8,0.8,2.4,1.5c0.6,0.6,0.9,1.5,0.9,2.5c0,1.3-0.6,2.4-1.7,3.2
	c-1.2,0.9-2.6,1.3-4.5,1.3c-1.3,0-2.4-0.2-3.2-0.6c-0.8-0.4-1.5-1-1.9-1.6c-0.5-0.7-0.9-1.5-1.3-2.4c-0.3-0.8-0.7-1.4-1.2-1.9
	c-0.5-0.4-1-0.6-1.7-0.6c-0.8,0-1.5,0.3-2,0.8c-0.5,0.5-0.8,1.2-0.8,1.9c0,1.3,0.4,2.6,1.3,4c0.9,1.4,2,2.5,3.4,3.3
	c2,1.1,4.5,1.7,7.5,1.7c2.5,0,4.7-0.4,6.6-1.3c1.8-0.8,3.2-2,4.2-3.5C238.9,176.2,239.4,174.5,239.4,172.7"/>
<path class="st12" d="M281.7,65.5c0-7.7-4.1-14.7-10.8-18.5c-3.2-1.8-6.7-2.7-10.4-2.7c-1.7,0-3.4,0-5.1,0h-20.2h-40.4h-99H75.6
	h-5.1c-1.8,0-3.5,0-5.3,0c-7.7,0.2-14.7,4.5-18.3,11.3c-1.7,3.3-2.4,6.5-2.4,10.1v5v10.1v20.2c0,0.5,0,1,0.3,1.5
	c0.2,0.3,0.8,0.9,1,1.1c0.7,0.7,1.4,1.5,2.2,2.2l4.3,4.4c0.4,0.4,0.7,0.8,1.2,1c0.5,0.2,1,0.2,1.5-0.1c0.5-0.2,0.8-0.6,1-1.1
	c0.2-0.5,0.1-1,0.1-1.5v-6.2V77.7v-6.2c0-2.1,0-4.1,0-6.2c0.1-4.3,3-8.1,7.2-9.2c1-0.2,1.9-0.3,2.9-0.3h3.1h6.2h12.4h99h49.5h12.4
	h6.2c0.6,0,5.5,0,6.1,0c4.3,0.3,7.9,3.5,8.8,7.7c0.2,1,0.2,2,0.2,2.9v3.1v6.2v56.6c0,1.1,0,2.2-0.3,3.4c-0.3,1.2-0.8,2.2-1.5,3.2
	c-1.4,2-3.6,3.4-6,3.8c-1.3,0.2-2.6,0.2-3.8,0.2h-2.8c-0.5,0-0.9,0-1.3,0.3c-0.5,0.3-0.8,0.9-0.8,1.5c0,0.6,0,1.2,0,1.8v1.8v3.5
	c0,0.6-0.1,1.1,0.3,1.7c0.3,0.5,0.8,0.9,1.5,1c0.4,0,2.5,0,2.9,0c1.5,0,3.1,0,4.6-0.1c7.8-0.8,14.6-6,17.5-13.3
	c0.7-1.7,1.1-3.5,1.4-5.3c0.2-1.3,0.1-2.6,0.1-3.8V127v-20.5V65.5z"/>
<path class="st10" d="M31.2,110.7c0.5,1,1.7,1.4,2.7,0.8c0.5-0.3,0.7-0.7,1-1.2l0.7-1.4c0.9-1.9,1.9-3.8,2.8-5.7
	c0.3-0.7,0.4-0.7,0.4-1.5v-1.4v-2.8v-5.7V69.2v-2.8c0-2.1,0.1-4.1,0.5-6.1c1.1-5.4,3.7-10.2,7.6-14.1c3.9-3.8,8.8-6.3,14.2-7.3
	c2.9-0.5,5.7-0.4,8.6-0.4h22.6h119.4h46c1,0,2.1,0,3.1,0c2.6,0,5.1,0.4,7.5,1.2c5.4,1.6,10.1,4.9,13.5,9.4c3.3,4.3,5.2,9.5,5.6,14.9
	c0.1,1.3,0,2.6,0,3.9v2.9v23V118v12.1v3c0,2.5-0.3,5-1,7.5c-1.6,5.7-5,10.8-9.7,14.3c-4.5,3.5-10,5.4-15.7,5.5c-1,0-2,0-3,0h-2.4
	c-0.3,0-0.7,0-1,0.1c-0.6,0.2-1,0.6-1.2,1.2c-0.2,0.6-0.1,1.1-0.1,1.7v1.7v3.4c0,0.6,0,1.1,0,1.7c0,0.6,0.3,1.1,0.8,1.5
	c0.6,0.4,1.2,0.4,1.9,0.4h1.1h2.3c1,0,2,0,3-0.1c3.8-0.2,7.3-0.9,10.8-2.2c13.3-4.7,23-16.4,25.2-30.4c0.4-2.3,0.5-4.6,0.5-6.9v-2.5
	v-5v-20.2V84.6V74.6v-5c0-2.6,0.1-5.3-0.2-7.9c-1.4-13.3-9.5-25-21.6-30.8c-2.9-1.4-5.9-2.4-9.1-3.1c-2.7-0.6-5.4-0.8-8.1-0.8h-4.8
	h-19.2h-38.4H78.3h-9c-2.4,0-4.8-0.1-7.2,0.2c-6,0.6-11.8,2.5-16.9,5.7c-10.6,6.7-17.3,18-18,30.5c-0.1,2-0.1,4.1-0.1,6.1V74v18.1v9
	c0,0.4,0,0.8,0,1.2c0.1,0.5,0.3,0.8,0.5,1.2c0.4,0.8,0.8,1.6,1.2,2.4C29.6,107.5,30.4,109.1,31.2,110.7"/>
<path class="st11" d="M9.7,65.5c0-16.6,7.3-32.3,20-42.9c6.4-5.4,13.9-9.2,22-11.3c3.8-1,7.5-1.5,11.4-1.7c1.4-0.1,2.8-0.1,4.2-0.1
	h16.8h33.6h140h2.1c2.9,0,5.7,0.2,8.5,0.6c8.1,1.2,15.8,4.1,22.7,8.5c14.1,9.2,23.4,24.3,25.1,41.1c0.3,3,0.3,6,0.3,9v4.2v8.4v33.6
	v17.7c0,2.6-0.1,5.2-0.4,7.8c-0.5,4.2-1.5,8.2-2.9,12.2c-3,8.4-8.1,16-14.6,22.1c-6.5,6-14.4,10.4-22.9,12.8
	c-5.2,1.5-10.4,2.1-15.8,2.1h-3.5h-0.9c-1.1,0-1.9-0.8-2-1.9c0-1,0-2,0-3v-3V180c0-0.5,0.1-1,0.4-1.4c0.5-0.7,1.1-0.7,1.9-0.7h1.8
	h1.8h0.9c3.2,0,6.2-0.3,9.3-1c16.5-3.5,29.6-16.1,33.8-32.5c0.9-3.6,1.4-7.3,1.4-11v-2.6v-5.2v-20.9V83.8V73.3v-5.2
	c0-0.9,0-1.9,0-2.8c0-3.8-0.5-7.5-1.5-11.2c-4.9-18.4-20.9-31.6-39.9-32.9c-2.7-0.2-5.5-0.1-8.2-0.1h-5.9h-23.6h-47.1h-59.4H89.5
	H74.6h-7.4c-1,0-2.1,0-3.1,0c-2.7,0.1-5.3,0.4-8,1c-5.7,1.3-11,3.6-15.8,6.9c-8.6,6-14.8,14.8-17.5,25c-1.1,4-1.5,8-1.5,12.1v3.3
	v13.1v13.1v3.3v1.6c0,0.4,0,1.4-0.1,1.7c-0.2,0.7-0.9,1.2-1.3,1.7c-0.5,0.5-1,1-1.5,1.5c-1,1-2,2-3,3.1c-0.5,0.5-1,1-1.5,1.5
	l-0.8,0.8c-0.3,0.3-0.5,0.5-0.8,0.6c-0.7,0.3-1.5,0.1-2-0.3c-0.6-0.5-0.7-1.1-0.7-1.8v-6.2V90.5V65.5z"/>
<path class="st11" d="M28.2,173c-0.5-1.3,0.5-2.6,1.8-2.6h5.8c1.3,0,2.3,1.3,1.8,2.6c-1,2.7-1.9,5.3-2.9,8c-0.6,1.7-3,1.7-3.6,0
	C30.1,178.3,29.2,175.6,28.2,173"/>
<path class="st11" d="M11.1,126.2c-0.3-0.7-0.1-1.5,0.4-2c3.9-4,7.8-7.9,11.7-11.9c0.9-1,2.5-0.7,3.1,0.5l4.8,9.8
	c0.7,1.4,2.8,1.4,3.5,0c1.6-3.3,3.2-6.5,4.8-9.8c0.6-1.2,2.2-1.5,3.1-0.5c3.9,4,7.8,7.9,11.7,11.9c0.5,0.5,0.7,1.3,0.4,2
	c-4.9,13.4-9.8,26.8-14.7,40.2c-0.3,0.8-1,1.3-1.8,1.3H27.6c-0.8,0-1.5-0.5-1.8-1.3C20.9,153,16,139.6,11.1,126.2"/>
<path class="st11" d="M146.8,127.9v-22.3c-5.7-8.9-11.5-17.8-17.2-26.7c-1.5-2.4-2.6-4.3-3.2-5.6c-0.6-1.3-0.9-2.5-0.9-3.5
	c0-1.6,0.6-3,1.9-4.2c1.3-1.2,2.8-1.8,4.7-1.8c2,0,3.4,0.6,4.4,1.7c1,1.1,2.5,3.3,4.5,6.6c4.4,7.1,8.8,14.3,13.2,21.4
	c4.4-7.1,8.9-14.3,13.3-21.4c0.8-1.3,1.5-2.4,2-3.3c0.5-0.9,1.1-1.7,1.8-2.5c0.7-0.8,1.4-1.4,2.2-1.8c0.8-0.4,1.8-0.6,2.9-0.6
	c1.8,0,3.3,0.6,4.5,1.8c1.2,1.2,1.8,2.5,1.8,4.1c0,1.2-0.3,2.5-0.9,3.7c-0.6,1.2-1.6,3-3.1,5.2c-5.9,9-11.8,18-17.6,27.1v22.3
	c0,2.9-0.7,5.1-2,6.5c-1.3,1.4-3.1,2.2-5.1,2.2c-2.1,0-3.8-0.7-5.1-2.1C147.4,133,146.8,130.8,146.8,127.9"/>
<path class="st11" d="M127.6,122.5c-6.1-15.2-12.3-30.3-18.4-45.5c-0.9-2.3-1.6-4.1-2.1-5.5c-0.6-1.4-1.2-2.6-2.1-3.8
	c-0.8-1.2-1.9-2.2-3.2-2.9c-1.3-0.8-3-1.1-5-1.1c-2,0-3.6,0.4-4.9,1.1c-1.3,0.8-2.4,1.7-3.2,3c-0.8,1.2-1.6,2.7-2.3,4.6
	c-0.7,1.8-1.3,3.4-1.8,4.7c-6,15.3-12,30.5-18,45.8c-0.7,1.8-1.3,3.3-1.6,4.3c-0.3,1-0.5,2-0.5,3c0,1.7,0.7,3.2,2.1,4.5
	c1.4,1.3,3,2,4.8,2c2.1,0,3.6-0.6,4.6-1.9c0.9-1.2,2.1-3.6,3.4-7.1c1.1-3,2.2-6,3.4-9h28.6c1.1,2.9,2.2,5.9,3.4,8.8
	c0.4,1.1,1,2.3,1.6,3.8s1.2,2.5,1.8,3.2c0.5,0.7,1.2,1.2,2,1.6c0.8,0.4,1.8,0.6,2.9,0.6c1.9,0,3.6-0.7,4.9-2c1.4-1.4,2-2.9,2-4.5
	C129.7,128.4,129,125.9,127.6,122.5 M86.2,107.8l10.4-29.1l10.6,29.1H86.2z"/>
<path class="st11" d="M253.7,106.7v13.5c0,1.8-0.2,3.2-0.5,4.3c-0.4,1.1-1,2-1.9,2.9c-0.9,0.9-2.2,1.7-3.6,2.5
	c-4.3,2.3-8.4,4-12.3,5c-3.9,1.1-8.2,1.6-12.9,1.6c-5.4,0-10.4-0.8-14.8-2.5c-4.5-1.7-8.3-4.1-11.4-7.3c-3.1-3.2-5.6-7-7.2-11.5
	c-1.7-4.5-2.5-9.6-2.5-15.1c0-5.5,0.8-10.5,2.5-15c1.6-4.5,4-8.4,7.2-11.6s7-5.6,11.6-7.3s9.7-2.5,15.5-2.5c4.7,0,8.9,0.6,12.6,1.9
	c3.7,1.3,6.6,2.9,8.9,4.8c2.3,1.9,4,4,5.1,6.1c1.2,2.1,1.7,4.1,1.7,5.7c0,1.8-0.7,3.3-2,4.6c-1.3,1.3-2.9,1.9-4.8,1.9
	c-1,0-2-0.2-3-0.7c-0.9-0.5-1.7-1.2-2.4-2c-1.8-2.8-3.3-4.8-4.5-6.2c-1.2-1.4-2.9-2.6-4.9-3.6c-2.1-1-4.7-1.4-7.9-1.4
	c-3.3,0-6.2,0.6-8.8,1.7c-2.6,1.1-4.8,2.8-6.7,5c-1.8,2.2-3.3,4.8-4.2,8c-1,3.1-1.5,6.6-1.5,10.4c0,8.3,1.9,14.6,5.7,19.1
	c3.8,4.5,9.1,6.7,15.9,6.7c3.3,0,6.4-0.4,9.3-1.3c2.9-0.9,5.8-2.1,8.8-3.7v-11.4h-11.1c-2.7,0-4.7-0.4-6-1.2c-1.4-0.8-2-2.2-2-4.1
	c0-1.6,0.6-2.9,1.7-3.9c1.1-1,2.7-1.5,4.6-1.5H244c2,0,3.7,0.2,5,0.5c1.4,0.4,2.5,1.1,3.3,2.4C253.3,102.4,253.7,104.3,253.7,106.7"
	/>
</svg>
